<?xml version="1.0" encoding="utf-8"?>
<!-- Generator: Adobe Illustrator 18.1.1, SVG Export Plug-In . SVG Version: 6.00 Build 0)  -->
<!DOCTYPE svg PUBLIC "-//W3C//DTD SVG 1.1//EN" "http://www.w3.org/Graphics/SVG/1.1/DTD/svg11.dtd">
<svg version="1.1" id="_x31_0" xmlns="http://www.w3.org/2000/svg" xmlns:xlink="http://www.w3.org/1999/xlink" x="0px" y="0px"
	 viewBox="0 0 512 512" style="enable-background:new 0 0 512 512;" xml:space="preserve">
<style type="text/css">
	.st0{fill:#374149;}
</style>
<g>
	<path class="st0" d="M331.68,116.512c0-37.766-8.223-66.301-21.473-85.711c-0.23-0.339-0.43-0.726-0.664-1.062
		c-1.989-2.828-4.126-5.374-6.325-7.793c-0.468-0.519-0.886-1.125-1.367-1.629c-2.285-2.379-4.706-4.465-7.187-6.422
		c-0.465-0.367-0.863-0.836-1.336-1.192l-0.008,0.016c-0.042-0.031-0.082-0.074-0.121-0.106L265.586,52.43l-9.621,13.777
		l-35.934-51.82l-1.137-1.645c0,0,0,0-0.004,0.004l-0.09-0.133C195.805,29.68,180.32,64.449,180.32,116.512
		c0,87.645,75.68,116.156,75.68,116.156S331.68,204.156,331.68,116.512z"/>
	<path class="st0" d="M220.782,257.391c0,0-3.731-80.786-87.086-107.871c-49.019-15.926-86.586-12.164-109.977,4.015
		c-0.195,0.133-0.41,0.246-0.602,0.379l0.008,0.012c-0.046,0.027-0.094,0.054-0.137,0.086l29.282,38.492l10.183,13.477L2,224.164
		l-1.848,0.551c0,0,0,0.004,0,0.008L0,224.765c9.125,27.145,37.406,52.618,86.922,68.707
		C170.278,320.555,220.782,257.391,220.782,257.391z"/>
	<path class="st0" d="M104.266,348.98c-26.481,36.446-35.946,69.218-32.465,95.09c0.004,0.02,0.004,0.043,0.004,0.062
		c0.238,1.746,0.539,3.454,0.894,5.133c0.051,0.246,0.086,0.5,0.137,0.746c0.305,1.379,0.68,2.718,1.058,4.051
		c0.137,0.476,0.234,0.968,0.379,1.441l0.011-0.004c0.016,0.051,0.024,0.106,0.039,0.157l45.762-15.989l15.864-5.484l-1.434,65.203
		c28.633-0.29,61.598-19.321,92.199-61.438c51.519-70.91,7.05-138.457,7.05-138.457S155.782,278.074,104.266,348.98z"/>
	<path class="st0" d="M278.234,299.492c0,0-44.469,67.546,7.047,138.457c30.602,42.117,63.566,61.148,92.202,61.438l-1.066-48.45
		l-0.312-16.793l59.406,20.758l2.007,0.707c0-0.004,0-0.004,0-0.004l0.153,0.051c8.574-27.325,0.664-64.555-29.938-106.676
		C356.218,278.074,278.234,299.492,278.234,299.492z"/>
	<path class="st0" d="M509.562,230.887c0.102-0.226,0.222-0.45,0.324-0.68c0.563-1.289,1.043-2.586,1.52-3.882
		c0.172-0.469,0.386-0.93,0.546-1.402l-0.011-0.004c0.019-0.051,0.039-0.102,0.058-0.153l-46.473-13.976l-16.004-4.871
		l38.176-50.184l1.218-1.594c-0.003,0-0.003,0-0.003,0l0.094-0.129c-23.336-16.598-61.188-20.578-110.703-4.492
		c-83.355,27.086-87.086,107.871-87.086,107.871s50.5,63.164,133.86,36.082c42.836-13.922,69.75-34.863,82.148-57.836
		c0.012-0.023,0.027-0.046,0.039-0.07C508.102,234.016,508.859,232.457,509.562,230.887z"/>
</g>
</svg>
